PathFileType	4	(X/Y/Z)	/Users/niels/Desktop/University/Third Semester/Perception and Action/Exam/Gymnastics Motion Tracking/Code for Gym Tracking/Scripts/Analyzed Data/Start Salto/st_salto_good_id8_1_Sports2D/st_salto_good_id8_1_Sports2D_px_person00.trc
DataRate	CameraRate	NumFrames	NumMarkers	Units	OrigDataRate	OrigDataStartFrame	OrigNumFrames
156.22293616426876	156.22293616426876	11	22	m	156.22293616426876	350	467
Frame#	Time	Hip			RHip			RKnee			RAnkle			RBigToe			RSmallToe			RHeel			LHip			LKnee			LAnkle			LBigToe			LSmallToe			LHeel			Neck			Head			Nose			RShoulder			RElbow			RWrist			LShoulder			LElbow			LWrist		
		X1	Y1	Z1	X2	Y2	Z2	X3	Y3	Z3	X4	Y4	Z4	X5	Y5	Z5	X6	Y6	Z6	X7	Y7	Z7	X8	Y8	Z8	X9	Y9	Z9	X10	Y10	Z10	X11	Y11	Z11	X12	Y12	Z12	X13	Y13	Z13	X14	Y14	Z14	X15	Y15	Z15	X16	Y16	Z16	X17	Y17	Z17	X18	Y18	Z18	X19	Y19	Z19	X20	Y20	Z20	X21	Y21	Z21	X22	Y22	Z22
350	2.2403880543633763	1.4481241787599435	-0.5593917387817414	0.0	1.4711647185777281	-0.5585099819579934	0.0	1.5866953356581437	-0.6337180643990438	0.0	1.5949040068407396	-0.7635985851602116	0.0	1.6485814893111708	-0.7796273685556937	0.0	1.6441806500724165	-0.785695431107594	0.0	1.5858574178234839	-0.780886257711845	0.0	1.4306855538608299	-0.567980519002512	0.0	1.462241979633323	-0.6890094213485769	0.0	1.4052280974282558	-0.794481013869398	0.0	1.4306515002489184	-0.8176815545849759	0.0	1.414662683642646	-0.814571008660827	0.0	1.391997448828089	-0.8076398985363249	0.0	1.4380106567828868	-0.3642633124198945	0.0	1.465667196534505	-0.29079969995516747	0.0	1.4864788449965758	-0.3375953238941824	0.0	1.4504317673503169	-0.3832520028684882	0.0	1.5206996061129379	-0.3341966951259734	0.0	1.5467691853896377	-0.25847807926454613	0.0	1.4094323858149826	-0.3826019879129771	0.0	1.4401443781821845	-0.31702302377361785	0.0	1.4631821371037201	-0.2512969563957366	0.0
351	2.2467891630901287	1.4544759224366006	-0.5613859524553231	0.0	1.4776274570938894	-0.560762155222791	0.0	1.5915960489492673	-0.6390191544534637	0.0	1.5960682744522758	-0.7685427961349811	0.0	1.6491366048807106	-0.7853397314127333	0.0	1.6446060039025527	-0.791213697885709	0.0	1.5865564306308884	-0.7854328083048419	0.0	1.4366884052422282	-0.5693686308372579	0.0	1.4655227461615683	-0.6908357988477549	0.0	1.4054168166688914	-0.7944713527808015	0.0	1.4301153104974207	-0.8179327502490218	0.0	1.4143095253323519	-0.8146430735632197	0.0	1.3918351606458008	-0.8072864922643637	0.0	1.448963409371833	-0.36611201203503657	0.0	1.4782861422013618	-0.2938060724654035	0.0	1.498280312177802	-0.3407579540038501	0.0	1.4611214706949573	-0.38503720246648926	0.0	1.5329693665068531	-0.3383197620328858	0.0	1.5621407330493633	-0.2641924909716238	0.0	1.4199027814079526	-0.38407373091747776	0.0	1.4524866249518822	-0.32073023567324654	0.0	1.4774059333605694	-0.25596567394163844	0.0
352	2.2531902718168815	1.460886073216599	-0.5630483814906275	0.0	1.4841254829559278	-0.5626642819637028	0.0	1.5964935008832497	-0.643793012101039	0.0	1.59717116901749	-0.7728821695553951	0.0	1.6495929727603074	-0.790460399146538	0.0	1.6449293768430329	-0.7961403710717917	0.0	1.5871892886191559	-0.7893641685687557	0.0	1.442776851585588	-0.570421070063344	0.0	1.4689536283856726	-0.6922668636569879	0.0	1.4058163067876421	-0.7940150708868529	0.0	1.429825895732905	-0.8178855064296418	0.0	1.4142223293393212	-0.8143973713815625	0.0	1.3918873118293797	-0.8064644747666548	0.0	1.4599525389946169	-0.3677954825033645	0.0	1.4909195461443538	-0.2966754467214231	0.0	1.5100895844836368	-0.3437764880196989	0.0	1.4718201854638489	-0.3866477557223812	0.0	1.545262460520128	-0.34246669594866475	0.0	1.577614963296179	-0.2700972732011343	0.0	1.4304417078897251	-0.3853494920650473	0.0	1.464889843829651	-0.32445745664361675	0.0	1.491802610433038	-0.2608280157673398	0.0
353	2.259591380543634	1.4673629651367588	-0.5643745972546229	0.0	1.4906689905427877	-0.5642102502017304	0.0	1.601398274443785	-0.6480457396402319	0.0	1.5982254004831624	-0.7766317316288326	0.0	1.6499650488600037	-0.7950147457994495	0.0	1.6451647691947509	-0.800499207085482	0.0	1.5877684791272795	-0.7926966586393442	0.0	1.448958852271816	-0.5711358996310166	0.0	1.4725471480128407	-0.6933182614229921	0.0	1.406444793825866	-0.7931306475316957	0.0	1.4297966240179953	-0.8175576141286159	0.0	1.4144098156204308	-0.813852102544753	0.0	1.3921724992335285	-0.8051932751404802	0.0	1.470991114058697	-0.3693061723314355	0.0	1.5035858259731196	-0.29939362608549025	0.0	1.521919955627999	-0.3466388352582132	0.0	1.4825460659137217	-0.38807436850248	0.0	1.5575778734351506	-0.3466182574330783	0.0	1.5931680558709835	-0.2761756161330703	0.0	1.441063149078012	-0.3864232694693015	0.0	1.4773464501517228	-0.3281959720640064	0.0	1.5063551317080297	-0.2658773084223348	0.0
354	2.265992489270386	1.4739137447846422	-0.565361952275455	0.0	1.4972670117176134	-0.5653955977477993	0.0	1.6063170442291506	-0.6517875320575666	0.0	1.5992429104764914	-0.77981050242536	0.0	1.6502668746820266	-0.7990299654755497	0.0	1.6453263070413184	-0.8043158606109694	0.0	1.588306119474471	-0.7954505331108906	0.0	1.4552413207552966	-0.5715127170548123	0.0	1.4763170804119352	-0.6940055200615638	0.0	1.4073215879825827	-0.7918364994570649	0.0	1.4300411117583867	-0.8169649155762656	0.0	1.4148808708364535	-0.81302342984402	0.0	1.3927102199008423	-0.8034924759564723	0.0	1.4820901617651154	-0.37063866155535946	0.0	1.5163009149882685	-0.3019481383999558	0.0	1.5337828615426943	-0.3493342563833951	0.0	1.4933161837301463	-0.38930905371274527	0.0	1.5699137872509297	-0.3507548343555237	0.0	1.6087728270650403	-0.2824097082457586	0.0	1.4517790282910732	-0.3872915169232618	0.0	1.4898461276434858	-0.3319390539944278	0.0	1.5210427676146372	-0.27110693845700307	0.0
355	2.2723935979971386	1.4805440082908985	-0.5660097052311812	0.0	1.5039270219177558	-0.5662176209457684	0.0	1.6112519816816762	-0.6550325149820438	0.0	1.6002344116483203	-0.7824410832143975	0.0	1.6505114738420634	-0.8025346224996096	0.0	1.6454274868239152	-0.8076175217268788	0.0	1.5888136696280024	-0.7976494685986497	0.0	1.461629802377707	-0.5715527894804624	0.0	1.4802780835911893	-0.6943442002999253	0.0	1.4084667892459628	-0.7901515715571191	0.0	1.4305731540509024	-0.8161217545473298	0.0	1.4156447770130738	-0.811926035605666	0.0	1.39352078659756	-0.8013820922339505	0.0	1.4932582658081939	-0.371789671529128	0.0	1.529077729174557	-0.30432895692657075	0.0	1.5456873282910688	-0.3518539708617571	0.0	1.5041456748412996	-0.39034551618964597	0.0	1.5822669008886519	-0.35485648510808954	0.0	1.6243978092485254	-0.28878050500019037	0.0	1.4625985517176812	-0.387953203384643	0.0	1.502375598358839	-0.3356816117391702	0.0	1.5358407092703856	-0.27651014205882984	0.0
356	2.2787947067238914	1.4872575415892948	-0.5663191374925909	0.0	1.5106545642679294	-0.5666755294552547	0.0	1.6162004328990998	-0.6577984979611016	0.0	1.6012089477651072	-0.7845491484436282	0.0	1.6507100922633908	-0.8055582365849693	0.0	1.645480241171558	-0.8104325748265825	0.0	1.5893016392731714	-0.7993198647967208	0.0	1.4681281224227125	-0.5712591179160684	0.0	1.4844452961735137	-0.6943499027317015	0.0	1.4099009590546054	-0.7880959034258266	0.0	1.4314064354241478	-0.8150415096759921	0.0	1.416711329318606	-0.8105738731024241	0.0	1.394625112551045	-0.7988827916677996	0.0	1.5045014371738534	-0.3727578870778549	0.0	1.5419259511252053	-0.3065290814643578	0.0	1.557639491064743	-0.3541915013716545	0.0	1.515046873407776	-0.39117938842364175	0.0	1.59463190869243	-0.3589031417675413	0.0	1.640006777575777	-0.29526759210966197	0.0	1.4735277425549587	-0.38840950666559027	0.0	1.5149190764736464	-0.33941935846222704	0.0	1.550720195672654	-0.2820794350160069	0.0
357	2.2851958154506438	1.4940564599963382	-0.5662936241196381	0.0	1.517453155692157	-0.5667705784990827	0.0	1.6211552267280795	-0.6601065973956279	0.0	1.6021736766157173	-0.7861629766886897	0.0	1.6508715194191557	-0.8081309025128864	0.0	1.645494220168513	-0.8127902449573828	0.0	1.5897794120153392	-0.8004902352400922	0.0	1.4747383899166233	-0.5706364149773512	0.0	1.4888340866534508	-0.6940382827434822	0.0	1.411644804133044	-0.7856909483007295	0.0	1.4325543255654511	-0.8137370532909534	0.0	1.4180908687462106	-0.8089807687687548	0.0	1.3960444214927359	-0.796016099732078	0.0	1.515823291778838	-0.3735437864129205	0.0	1.5548519751061418	-0.3085447762603311	0.0	1.569642391607441	-0.3563427830025157	0.0	1.5260290586870058	-0.39180822661154446	0.0	1.6070015203753065	-0.3628751026206394	0.0	1.655559333605467	-0.3018494711909249	0.0	1.4845695063163977	-0.38866361773063046	0.0	1.5274592777127647	-0.3431483096551006	0.0	1.5656491197961668	-0.28780638699914335	0.0
358	2.291596924177396	1.5009415471158274	-0.5659387095009291	0.0	1.5243244355584478	-0.5665062164973554	0.0	1.6261054242979762	-0.6619807299683158	0.0	1.6031339468423822	-0.7873129648431859	0.0	1.6510018093400833	-0.8102829576310816	0.0	1.6454765996155627	-0.8147201960814006	0.0	1.59025525543135	-0.8011907997001659	0.0	1.4814613401356191	-0.5696911057660665	0.0	1.4934598922103404	-0.6934252511421101	0.0	1.4137189077698364	-0.7829596962720802	0.0	1.4340300789716958	-0.8122210231783827	0.0	1.419794447762411	-0.8071607142953976	0.0	1.39779997342579	-0.7928047620377986	0.0	1.527225327124256	-0.3741496789811288	0.0	1.56785893703171	-0.31037554595714995	0.0	1.5816961248817125	-0.3583062326771202	0.0	1.5370988255044133	-0.3922314940552917	0.0	1.619366978263813	-0.3667536181080041	0.0	1.6710121169836378	-0.3085040922935214	0.0	1.4957240835648595	-0.3887208153073758	0.0	1.539978475345595	-0.346864602308708	0.0	1.5805929173561197	-0.29368154935559865	0.0
359	2.297998032904149	1.5079123744535063	-0.56526211075162	0.0	1.5312681631932175	-0.5658882014020583	0.0	1.6310371131849393	-0.663446977309508	0.0	1.6040934894442116	-0.7880309633358129	0.0	1.6511044092486802	-0.8120446526262135	0.0	1.6454322873293266	-0.8162521087810913	0.0	1.5907363693341177	-0.8014530629741619	0.0	1.488296600443696	-0.5684313385287042	0.0	1.498337946435528	-0.6925272461949896	0.0	1.4161434725847883	-0.7799267266296965	0.0	1.4358473630028472	-0.8105058014669625	0.0	1.4218341651279152	-0.8051278839197162	0.0	1.3999127742479114	-0.7892732078814738	0.0	1.5387069674561364	-0.374579837705197	0.0	1.5809465982644262	-0.312023899244124	0.0	1.5937979443520947	-0.360082608505437	0.0	1.5482603650128932	-0.3924506415420004	0.0	1.6317184342697313	-0.3705212529117179	0.0	1.6863196165710683	-0.3152091518211899	0.0	1.5069893415257058	-0.38858853941613264	0.0	1.5524589915658102	-0.3505642631810258	0.0	1.5955152618119113	-0.29969413805494743	0.0
360	2.3043991416309013	1.5149673736969413	-0.5642736377163132	0.0	1.5382822746192804	-0.5649247151587022	0.0	1.6359343585473196	-0.6645327873861421	0.0	1.6050546151243417	-0.788349472407701	0.0	1.6511805289627186	-0.8134456840932499	0.0	1.6453642982384127	-0.8174152375915269	0.0	1.5912288243141595	-0.8013091907319133	0.0	1.495242857708799	-0.5668671576629533	0.0	1.5034830453752517	-0.6913612777745226	0.0	1.4189380016192503	-0.7766181235061316	0.0	1.4380206828760091	-0.8086033711168855	0.0	1.4242234196883696	-0.8028965392140558	0.0	1.402403202001285	-0.7854477331523954	0.0	1.5502657121621342	-0.3748404603414088	0.0	1.5941111478547356	-0.3134950024336084	0.0	1.6059424165524774	-0.36167471967084314	0.0	1.559515656188784	-0.3924692758910327	0.0	1.6440451615493177	-0.3741621274210255	0.0	1.7014348841883808	-0.3219422595900461	0.0	1.5183609185114577	-0.38827642357133507	0.0	1.5648833550538137	-0.3542431379540675	0.0	1.6103786821782669	-0.30583195911896105	0.0
